HIERARCHY
ROOT Pelvis
{
	OFFSET 0.000000 0.000000 0.000000
	CHANNELS 6 Xposition Yposition Zposition Xrotation Yrotation Zrotation
	JOINT LeftUpLeg_virtual
	{
		OFFSET 0.000000 0.000000 0.000000
		CHANNELS 3 Xrotation Yrotation Zrotation
		JOINT LeftUpLeg
		{
			OFFSET 18.735201 -5.666702 -4.541200
			CHANNELS 3 Xrotation Yrotation Zrotation
			JOINT LeftLeg
			{
				OFFSET -0.021200 -31.938179 0.493100
				CHANNELS 3 Xrotation Yrotation Zrotation
				JOINT LeftFoot
				{
					OFFSET 0.021200 -31.938179 -4.336299
					CHANNELS 3 Xrotation Yrotation Zrotation
					JOINT LeftToeBase
					{
						OFFSET 0.943001 -26.722000 15.023500
						CHANNELS 3 Xrotation Yrotation Zrotation
						End Site
						{
							OFFSET 0 0 0
						}
					}
				}
			}
		}
	}
	JOINT RightUpLeg_virtual
	{
		OFFSET 0.000000 0.000000 0.000000
		CHANNELS 3 Xrotation Yrotation Zrotation
		JOINT RightUpLeg
		{
			OFFSET -18.735201 -5.666702 -4.541200
			CHANNELS 3 Xrotation Yrotation Zrotation
			JOINT RightLeg
			{
				OFFSET 0.018946 -31.938133 0.493100
				CHANNELS 3 Xrotation Yrotation Zrotation
				JOINT RightFoot
				{
					OFFSET -0.018946 -31.938126 -4.336299
					CHANNELS 3 Xrotation Yrotation Zrotation
					JOINT RightToeBase
					{
						OFFSET -0.943001 -26.722004 15.023500
						CHANNELS 3 Xrotation Yrotation Zrotation
						End Site
						{
							OFFSET 0 0 0
						}
					}
				}
			}
		}
	}
	JOINT Hips_virtual
	{
		OFFSET 0.000000 0.000000 0.000000
		CHANNELS 3 Xrotation Yrotation Zrotation
		JOINT Hips
		{
			OFFSET -0.000000 -0.000000 -0.000000
			CHANNELS 3 Xrotation Yrotation Zrotation
			JOINT Spine
			{
				OFFSET 0.000000 10.199997 -0.299500
				CHANNELS 3 Xrotation Yrotation Zrotation
				JOINT Spine1
				{
					OFFSET 0.000000 11.900002 -1.516600
					CHANNELS 3 Xrotation Yrotation Zrotation
					JOINT Spine2
					{
						OFFSET 0.000000 13.600006 -2.842500
						CHANNELS 3 Xrotation Yrotation Zrotation
						JOINT Neck_virtual
						{
							OFFSET 0.000000 0.000000 0.000000
							CHANNELS 3 Xrotation Yrotation Zrotation
							JOINT Neck
							{
								OFFSET 0.000000 9.624100 -2.890100
								CHANNELS 3 Xrotation Yrotation Zrotation
								JOINT Head
								{
									OFFSET 0.000000 14.068802 -1.351900
									CHANNELS 3 Xrotation Yrotation Zrotation
									End Site
									{
										OFFSET 0 0 0
									}
								}
							}
						}
						JOINT LeftShoulder_virtual
						{
							OFFSET 0.000000 0.000000 0.000000
							CHANNELS 3 Xrotation Yrotation Zrotation
							JOINT LeftShoulder
							{
								OFFSET 15.263000 10.923401 -0.547700
								CHANNELS 3 Xrotation Yrotation Zrotation
								JOINT LeftArm
								{
									OFFSET 25.438599 -2.830597 -13.032500
									CHANNELS 3 Xrotation Yrotation Zrotation
									JOINT LeftForeArm
									{
										OFFSET 29.960503 0.000000 0.000000
										CHANNELS 3 Xrotation Yrotation Zrotation
										JOINT LeftHand
										{
											OFFSET 27.849251 0.000000 0.000000
											CHANNELS 3 Xrotation Yrotation Zrotation
											End Site
											{
												OFFSET 0 0 0
											}
										}
									}
								}
							}
						}
						JOINT RightShoulder_virtual
						{
							OFFSET 0.000000 0.000000 0.000000
							CHANNELS 3 Xrotation Yrotation Zrotation
							JOINT RightShoulder
							{
								OFFSET -15.263000 10.923401 -0.547700
								CHANNELS 3 Xrotation Yrotation Zrotation
								JOINT RightArm
								{
									OFFSET -25.438599 -2.830597 -13.032500
									CHANNELS 3 Xrotation Yrotation Zrotation
									JOINT RightForeArm
									{
										OFFSET -29.960503 0.000000 0.000000
										CHANNELS 3 Xrotation Yrotation Zrotation
										JOINT RightHand
										{
											OFFSET -27.849251 0.000000 0.000000
											CHANNELS 3 Xrotation Yrotation Zrotation
											End Site
											{
												OFFSET 0 0 0
											}
										}
									}
								}
							}
						}
					}
				}
			}
		}
	}
}
MOTION
Frames: 6
Frame Time: 0.03333333
12.503951 25.725021 400.408875 0.000000 0.000000 0.000000 54.892717 -67.357440 86.370303 -47.635440 -27.611144 52.838767 55.535875 -7.878862 -7.144243 1.216685 -4.801529 -22.525151 0.000000 0.000000 0.000000 17.704957 -68.803234 51.518362 -58.839170 -32.039526 2.781197 141.789181 18.982040 -2.719169 38.146480 21.534902 37.958824 0.000000 0.000000 0.000000 -2.025342 -40.523646 8.702174 13.575637 -14.206468 43.339825 24.184149 -12.935704 -0.954206 16.640038 -6.818658 -2.420799 0.000000 0.000000 0.000000 14.597719 -5.943935 -3.001880 5.215719 -0.534590 -0.621686 0.000000 0.000000 0.000000 17.797289 -7.440525 -3.053386 3.615607 -17.824883 -18.385498 30.078391 -9.922720 -64.759100 16.636478 -18.029029 -11.616105 0.000000 0.000000 0.000000 18.794937 -2.218132 1.927530 10.744460 -1.006933 2.504638 -50.597912 -24.912673 -3.929629 -20.757785 45.576251 6.542955 0.000000 0.000000 0.000000 
12.784194 26.180731 405.309723 0.000000 0.000000 0.000000 55.692990 -67.402076 87.210977 -48.432520 -27.507583 52.672213 57.471022 -8.735711 -7.816162 2.313704 -5.345577 -24.171862 0.000000 0.000000 0.000000 18.463330 -69.583112 48.303344 -56.584333 -31.142910 0.413070 141.744648 20.617901 -2.780550 36.727368 22.549006 40.440720 0.000000 0.000000 0.000000 -1.757968 -40.072372 8.201650 14.859141 -15.059334 41.306877 23.814361 -11.365857 -1.302490 16.181878 -5.925283 -2.426926 0.000000 0.000000 0.000000 13.966419 -5.097107 -2.891716 4.897333 -0.195427 -0.535377 0.000000 0.000000 0.000000 17.360830 -6.680188 -3.183514 3.688971 -15.644014 -18.781432 30.634635 -9.721712 -64.376439 16.732956 -18.428720 -11.058276 0.000000 0.000000 0.000000 18.034268 -1.610556 1.692419 10.010111 0.991460 2.464978 -52.279631 -25.525448 -2.707613 -21.732262 44.778966 7.049889 0.000000 0.000000 0.000000 
13.027030 26.696192 409.952209 0.000000 0.000000 0.000000 55.800159 -67.680693 87.356241 -49.630856 -27.351023 52.121624 59.643076 -9.450690 -8.196712 3.662851 -5.930152 -25.328561 0.000000 0.000000 0.000000 19.174706 -70.264068 44.823902 -53.908484 -30.279424 -2.048113 141.263516 22.309995 -2.746449 34.926008 23.335121 42.990993 0.000000 0.000000 0.000000 -1.555183 -39.562997 7.678647 15.863796 -15.882034 39.063395 23.369960 -9.793052 -1.742243 15.682183 -5.037161 -2.493601 0.000000 0.000000 0.000000 13.285926 -4.253894 -2.806098 4.543625 0.154097 -0.467207 0.000000 0.000000 0.000000 16.903593 -5.914590 -3.311514 3.800507 -13.345408 -19.130035 31.219558 -9.211444 -63.839135 16.759286 -18.518057 -10.428168 0.000000 0.000000 0.000000 17.150981 -1.069532 1.429677 9.179603 2.714141 2.355198 -53.219792 -26.438163 -0.801844 -22.725643 44.480080 7.888705 0.000000 0.000000 0.000000 
13.199877 27.273876 414.292694 0.000000 0.000000 0.000000 54.916647 -68.209923 86.516736 -51.246790 -27.108812 51.155416 61.923328 -9.963200 -8.282985 5.179446 -6.496562 -25.944538 0.000000 0.000000 0.000000 19.770753 -70.782050 41.131891 -50.847244 -29.479698 -4.543522 140.296115 24.031459 -2.584194 32.762150 23.831937 45.541236 0.000000 0.000000 0.000000 -1.407616 -39.014034 7.152255 16.520838 -16.628046 36.612819 22.848502 -8.282462 -2.246979 15.141889 -4.189358 -2.610855 0.000000 0.000000 0.000000 12.581177 -3.461952 -2.743423 4.166532 0.490547 -0.418748 0.000000 0.000000 0.000000 16.427911 -5.176399 -3.418603 3.937632 -11.046391 -19.359321 31.797082 -8.396004 -63.100320 16.701182 -18.306340 -9.720116 0.000000 0.000000 0.000000 16.204188 -0.616710 1.155008 8.321595 4.085589 2.203152 -53.113405 -27.614438 1.873525 -23.643207 44.761027 9.066475 0.000000 0.000000 0.000000 
13.272743 27.923380 418.287598 0.000000 0.000000 0.000000 52.643167 -68.955309 84.285873 -53.244388 -26.728658 49.774908 64.184189 -10.232172 -8.107263 6.768268 -6.979048 -26.017775 0.000000 0.000000 0.000000 20.190510 -71.070980 37.297546 -47.470050 -28.766407 -6.998515 138.821218 25.772749 -2.269191 30.269718 24.012027 48.041488 0.000000 0.000000 0.000000 -1.286236 -38.442637 6.645053 16.836966 -17.246207 33.978221 22.256552 -6.891926 -2.784793 14.566972 -3.412949 -2.764407 0.000000 0.000000 0.000000 11.873912 -2.762640 -2.699157 3.777414 0.793315 -0.388812 0.000000 0.000000 0.000000 15.932099 -4.496878 -3.487587 4.076771 -8.864929 -19.403546 32.268221 -7.278408 -62.122128 16.523991 -17.846241 -8.928992 0.000000 0.000000 0.000000 15.258805 -0.264813 0.880737 7.508413 5.069445 2.024070 -51.684079 -28.939935 5.413575 -24.413396 45.701052 10.592110 0.000000 0.000000 0.000000 
13.222322 28.666782 421.900787 0.000000 0.000000 0.000000 48.521158 -69.808399 80.170944 -55.527013 -26.147054 48.016674 66.315611 -10.240309 -7.723569 8.332000 -7.316348 -25.585720 0.000000 0.000000 0.000000 20.395694 -71.069143 33.411178 -43.877388 -28.148046 -9.328204 136.840586 27.541566 -1.785697 27.489088 23.879764 50.463852 0.000000 0.000000 0.000000 -1.149025 -37.860097 6.179319 16.896039 -17.688274 31.210485 21.612593 -5.666932 -3.323490 13.970074 -2.732349 -2.938182 0.000000 0.000000 0.000000 11.181634 -2.184909 -2.667381 3.386527 1.047936 -0.374261 0.000000 0.000000 0.000000 15.411760 -3.902638 -3.506382 4.188037 -6.905877 -19.215971 32.477000 -5.864104 -60.887168 16.177785 -17.226463 -8.057191 0.000000 0.000000 0.000000 14.372694 -0.016636 0.614947 6.802169 5.671210 1.820982 -48.742620 -30.206266 9.892789 -25.011623 47.365774 12.477121 0.000000 0.000000 0.000000 
